{"title":"Chef Academy S01E05 TVRip-XVID Dodecahedron [Dodecahedron]","uid":5223713,"size":183613440,"categoryP":"video","categoryS":"tv_shows","magnet":"?xt=urn:btih:83c93cb4ed6b44629586eeccffa410ced6a26cf1&amp;dn=Chef+Academy+S01E05+TVRip-XVID+Dodecahedron+%5BDodecahedron%5D&amp;tr=udp%3A%2F%2Ftracker.openbittorrent.com%3A80&amp;tr=udp%3A%2F%2Fopen.demonii.com%3A1337&amp;tr=udp%3A%2F%2Ftracker.coppersurfer.tk%3A6969&amp;tr=udp%3A%2F%2Fexodus.desync.com%3A6969","seeders":1,"leechers":1,"uploader":"Dodecahedron9","files":-1,"time":1261037963,"description":"\nEpisode 5: &quot;Naked Lunch&quot;\n\n----\n\n   General\n\n      Format : AVI\n      Format/Info : Audio Video Interleave\n      File size : 175 MiB\n      Duration : 44mn 23s\n      Overall bit rate : 551 Kbps\n      Writing application : VirtualDubMod 1.5.4.1 (build 2178/release)\n      Writing library : VirtualDubMod build 2178/release\n\n   Video\n\n      Format : MPEG-4 Visual\n      Format profile : Streaming Video@L1\n      Format settings, BVOP : Yes\n      Format settings, QPel : No\n      Format settings, GMC : No warppoints\n      Format settings, Matrix : Custom\n      Codec ID : XVID\n      Codec ID/Hint : XviD\n      Duration : 44mn 23s\n      Bit rate : 420 Kbps\n      Width : 384 pixels\n      Height : 288 pixels\n      Display aspect ratio : 4/3\n      Frame rate : 23.976 fps\n      Resolution : 24 bits\n      Colorimetry : 4:2:0\n      Scan type : Progressive\n      Bits/(Pixel*Frame) : 0.158\n      Stream size : 133 MiB (76%)\n      Writing library : XviD 50\n\n   Audio\n\n      Format : MPEG Audio\n      Format version : Version 1\n      Format profile : Layer 3\n      Codec ID : 55\n      Codec ID/Hint : MP3\n      Duration : 44mn 23s\n      Bit rate mode : Variable\n      Bit rate : 119 Kbps\n      Minimum bit rate : 128 Kbps\n      Channel(s) : 2 channels\n      Sampling rate : 48.0 KHz\n      Resolution : 16 bits\n      Stream size : 37.8 MiB (22%)\n      Alignment : Aligned on interleaves\n      Interleave, duration : 24 ms (0.58 video frame)\n      Interleave, preload duration : 555 ms\n      Writing library : LAME3.98r\n      Encoding settings : ABR\n\n--\n\nNote: The series will resume in 2010, airing dates have not been confirmed yet. So, happy new year everybody! :)","torrent":{"xt":"urn:btih:83c93cb4ed6b44629586eeccffa410ced6a26cf1","amp;dn":"Chef+Academy+S01E05+TVRip-XVID+Dodecahedron+%5BDodecahedron%5D","amp;tr":["udp%3A%2F%2Ftracker.openbittorrent.com%3A80","udp%3A%2F%2Fopen.demonii.com%3A1337","udp%3A%2F%2Ftracker.coppersurfer.tk%3A6969","udp%3A%2F%2Fexodus.desync.com%3A6969"],"infoHash":"83c93cb4ed6b44629586eeccffa410ced6a26cf1","infoHashBuffer":{"type":"Buffer","data":[131,201,60,180,237,107,68,98,149,134,238,204,255,164,16,206,214,162,108,241]},"announce":[],"urlList":[]}}